<?xml version="1.0" encoding="UTF-8" standalone="no"?>
<svg width="794px" height="200px" viewBox="0 0 794 200" version="1.1" xmlns="http://www.w3.org/2000/svg" xmlns:xlink="http://www.w3.org/1999/xlink" class="headline__image">
    <title>card</title>
    <defs></defs>
    <g stroke="none" stroke-width="1" fill="none" fill-rule="evenodd">
        <g transform="translate(-32.000000, -21.000000)"></g>
        <text font-family="Montserrat" font-size="88.6540539" font-weight="bold">
            <tspan x="218" y="127" fill="#000000">Skunk</tspan>
            <tspan x="506.125675" y="127" fill="#D0011B">Werks</tspan>
        </text>
        <text font-family="Montserrat" font-size="22.2" font-weight="normal">
            <tspan x="280" y="165" fill="#000000">P</tspan>
            <tspan x="294.9406" y="165" fill="#000000">eer-to-Peer Distributed</tspan>
            <tspan x="280" y="191" fill="#000000">Data Systems for the </tspan>
            <tspan x="514.0546" y="191" fill="#D0011B">Net</tspan>
            <tspan x="553.726" y="191" fill="#000000">.</tspan>
        </text>
        <g transform="translate(100.000000, 100.000000) rotate(-90.000000) translate(-100.000000, -100.000000) ">
            <path d="M172.425249,200 C187.654364,200 200,187.654364 200,172.425249 C200,157.196134 187.654364,144.850498 172.425249,144.850498 C157.196134,144.850498 144.850498,157.196134 144.850498,172.425249 C144.850498,187.654364 157.196134,200 172.425249,200 Z" fill="#D0011B"></path>
            <path d="M104.983389,127.90294 C118.160884,125.830124 128.239203,114.424248 128.239203,100.664452 C128.239203,86.9046561 118.160884,75.4987792 104.983389,73.4259637 C104.983389,67.2546129 104.983389,60.9495361 104.983389,54.8132389 C118.160884,52.7404235 128.239203,41.3345466 128.239203,27.5747508 C128.239203,12.3456357 115.893567,0 100.664452,0 C85.4353367,0 73.089701,12.3456357 73.089701,27.5747508 C73.089701,41.3345466 83.1680199,52.7404235 96.345515,54.8132389 L96.345515,73.4259638 C83.1680199,75.4987792 73.089701,86.9046561 73.089701,100.664452 C73.089701,114.424248 83.1680199,125.830124 96.345515,127.90294 L96.345515,145.186761 C83.1680199,147.259577 73.089701,158.665453 73.089701,172.425249 C73.089701,187.654364 85.4353367,200 100.664452,200 C115.893567,200 128.239203,187.654364 128.239203,172.425249 C128.239203,158.665453 118.160884,147.259577 104.983389,145.186761 L104.983389,127.90294 Z" fill="#000000"></path>
            <path d="M27.5747508,126.910299 C42.8038659,126.910299 55.1495017,114.862148 55.1495017,100 C55.1495017,85.1378515 42.8038659,73.089701 27.5747508,73.089701 C12.3456357,73.089701 0,85.1378515 0,100 C0,114.862148 12.3456357,126.910299 27.5747508,126.910299 Z M27.5747508,200 C42.8038659,200 55.1495017,187.951849 55.1495017,173.089701 C55.1495017,158.227553 42.8038659,146.179402 27.5747508,146.179402 C12.3456357,146.179402 0,158.227553 0,173.089701 C0,187.951849 12.3456357,200 27.5747508,200 Z" fill="#D0011B"></path>
        </g>
    </g>
</svg>
