<?xml version="1.0" encoding="UTF-8" standalone="no"?>
<svg class="headline__image" width="962px" height="63px" viewBox="0 0 962 63" version="1.1" xmlns="http://www.w3.org/2000/svg" xmlns:xlink="http://www.w3.org/1999/xlink">
    <title>footer</title>
    <desc>Created with Sketch.</desc>
    <defs></defs>
    <g stroke="none" stroke-width="1" fill="none" fill-rule="evenodd">
        <g transform="translate(-32.000000, -656.000000)"></g>
        <g transform="translate(0.000000, -17.000000)">
            <g transform="translate(205.500000, 51.500000) rotate(-90.000000) translate(-205.500000, -51.500000) translate(177.000000, -154.000000)">
                <path d="M28,411 C43.2291151,411 55.5747508,398.654364 55.5747508,383.425249 C55.5747508,368.196134 43.2291151,355.850498 28,355.850498 C12.7708849,355.850498 0.425249169,368.196134 0.425249169,383.425249 C0.425249169,398.654364 12.7708849,411 28,411 Z" fill="#D0011B"></path>
                <path d="M32.8936877,269.90294 C46.0711828,267.830124 56.1495017,256.424248 56.1495017,242.664452 C56.1495017,228.904656 46.0711828,217.498779 32.8936877,215.425964 C32.8936877,209.254613 32.8936877,202.949536 32.8936877,196.813239 C46.0711828,194.740424 56.1495017,183.334547 56.1495017,169.574751 C56.1495017,154.345636 43.8038659,142 28.5747508,142 C13.3456357,142 1,154.345636 1,169.574751 C1,183.334547 11.0783189,194.740423 24.255814,196.813239 L24.255814,215.425964 C11.0783189,217.498779 1,228.904656 1,242.664452 C1,256.424248 11.0783189,267.830124 24.255814,269.90294 L24.255814,287.186761 C11.0783189,289.259577 1,300.665453 1,314.425249 C1,329.654364 13.3456357,342 28.5747508,342 C43.8038659,342 56.1495017,329.654364 56.1495017,314.425249 C56.1495017,300.665453 46.0711828,289.259577 32.8936877,287.186761 L32.8936877,269.90294 Z" fill="#000000"></path>
                <path d="M28,53.820598 C43.2291151,53.820598 55.5747508,41.7724475 55.5747508,26.910299 C55.5747508,12.0481505 43.2291151,0 28,0 C12.7708849,0 0.425249169,12.0481505 0.425249169,26.910299 C0.425249169,41.7724475 12.7708849,53.820598 28,53.820598 Z M28,126.910299 C43.2291151,126.910299 55.5747508,114.862148 55.5747508,100 C55.5747508,85.1378515 43.2291151,73.089701 28,73.089701 C12.7708849,73.089701 0.425249169,85.1378515 0.425249169,100 C0.425249169,114.862148 12.7708849,126.910299 28,126.910299 Z" fill="#D0011B"></path>
            </g>
            <text font-family="Montserrat" font-size="80" font-weight="bold">
                <tspan x="442" y="77" fill="#000000">Skunk</tspan>
                <tspan x="702" y="77" fill="#D0011B">Werks</tspan>
            </text>
        </g>
    </g>
</svg>
